<?xml version="1.0" standalone="yes"?>
<svg xmlns="http://www.w3.org/2000/svg" width="100" height="100">
<path style="fill:#010101; stroke:none;" d="M0 0L0 6L1 6L5 0L0 0z"/>
<path style="fill:#dfebff; stroke:none;" d="M5.04398 1.02778C-2.03158 4.80167 0 15.3805 0 22L0 75C0 80.8238 -1.92349 90.9289 1.6034 95.8912C5.98388 102.055 16.4623 100 23 100L74 100C79.9314 100 89.6058 101.826 94.956 98.9722C102.032 95.1983 100 84.6195 100 78L100 25C100 19.1762 101.923 9.07115 98.3966 4.1088C94.0161 -2.05459 83.5377 0 77 0L26 0C20.0686 0 10.3942 -1.82587 5.04398 1.02778z"/>
<path style="fill:#010101; stroke:none;" d="M94 0L94 1L100 5L100 0L94 0z"/>
<path style="fill:#abbbd3; stroke:none;" d="M47 14L48 15L47 14z"/>
<path style="fill:#6f839f; stroke:none;" d="M48 14L49 15L48 14z"/>
<path style="fill:#21395a; stroke:none;" d="M49.0177 14.9707C42.9612 16.2348 34.7779 29.4025 30.7145 34C28.2707 36.765 25.5626 40.0757 22 41.3966C18.8319 42.5713 15.0524 41.4111 12.6034 44.3179C10.6315 46.6584 11.0059 50.1546 11 53C10.985 60.2786 7.96029 76.7672 12.8935 82.5664C16.3985 86.6865 25.1883 85 30 85C46.007 85 68.6024 89.1525 83.9059 84.5664C91.5757 82.2678 89 69.0681 89 63C89 57.9071 90.5432 49.676 87.9722 45.1088C85.2769 40.3206 80.1283 42.0529 76.0008 39.9722C71.104 37.5038 67.7356 31.8523 63.9853 28C60.7092 24.6347 54.4462 13.8376 49.0177 14.9707z"/>
<path style="fill:#6f839f; stroke:none;" d="M51 14L52 15L51 14z"/>
<path style="fill:#abbbd3; stroke:none;" d="M52 14L53 15L52 14z"/>
<path style="fill:#6f839f; stroke:none;" d="M46 15L47 16L46 15M53 15L54 16L53 15M45 16L46 17L45 16M48 16L48 17L52 17L48 16M54 16L55 17L54 16z"/>
<path style="fill:#abbbd3; stroke:none;" d="M44 17L45 18L44 17M47 17L48 18L47 17z"/>
<path style="fill:#dfebff; stroke:none;" d="M48.5887 18.0826C45.9122 19.9588 48.5208 24.8008 51.4113 22.8642C54.132 21.0413 51.5256 16.0239 48.5887 18.0826z"/>
<path style="fill:#abbbd3; stroke:none;" d="M52 17L53 18L52 17M55 17L56 18L55 17z"/>
<path style="fill:#6f839f; stroke:none;" d="M46 18L47 19L46 18M53 18L54 19L53 18z"/>
<path style="fill:#abbbd3; stroke:none;" d="M46.3333 19.6667L46.6667 20.3333L46.3333 19.6667M53.3333 19.6667L53.6667 20.3333L53.3333 19.6667M56 19L57 20L56 19z"/>
<path style="fill:#6f839f; stroke:none;" d="M43 20L44 21L43 20M56 20L57 21L56 20M42 21L43 22L42 21M46.3333 21.6667L46.6667 22.3333L46.3333 21.6667M53 21L54 22L53 21M57 21L58 22L57 21M41 22L42 23L41 22M58 22L59 23L58 22M40 23L41 24L40 23M39 28L46 25C42.7171 23.2193 41.0916 25.2738 39 28M47 23L48 24L47 23z"/>
<path style="fill:#abbbd3; stroke:none;" d="M48 23L49 24L48 23z"/>
<path style="fill:#6f839f; stroke:none;" d="M52 23L53 24L52 23M54 24L54 25L60 27L54 24M59 23L60 24L59 23z"/>
<path style="fill:#abbbd3; stroke:none;" d="M39 24L40 25L39 24z"/>
<path style="fill:#dfebff; stroke:none;" d="M29 41L71 41C61.4553 20.4107 38.4967 20.2675 29 41z"/>
<path style="fill:#abbbd3; stroke:none;" d="M60 24L61 25L60 24M38 25L39 26L38 25M46 25L47 26L46 25M53 25L54 26L53 25M61 25L62 26L61 25M37 26L38 27L37 26M48 26L49 27L48 26z"/>
<path style="fill:#6f839f; stroke:none;" d="M49 26L49 27L52 27L49 26z"/>
<path style="fill:#abbbd3; stroke:none;" d="M62 26L63 27L62 26M63 27L64 28L63 27z"/>
<path style="fill:#6f839f; stroke:none;" d="M31 33L32 34L31 33z"/>
<path style="fill:#abbbd3; stroke:none;" d="M65 33L66 34L65 33z"/>
<path style="fill:#6f839f; stroke:none;" d="M30 34L31 35L30 34z"/>
<path style="fill:#abbbd3; stroke:none;" d="M33 34L34 35L33 34M66 34L67 35L66 34z"/>
<path style="fill:#6f839f; stroke:none;" d="M69 34L70 35L69 34M29 35L30 36L29 35z"/>
<path style="fill:#abbbd3; stroke:none;" d="M32 35L33 36L32 35M67 35L68 36L67 35z"/>
<path style="fill:#6f839f; stroke:none;" d="M70 35L71 36L70 35M28 36L29 37L28 36z"/>
<path style="fill:#abbbd3; stroke:none;" d="M31 36L32 37L31 36z"/>
<path style="fill:#6f839f; stroke:none;" d="M68 36L69 37L68 36M71 36L72 37L71 36M27 37L28 38L27 37M30 37L31 38L30 37M69 37L70 38L69 37M72 37L73 38L72 37M26 38L27 39L26 38M29 38L30 39L29 38M70 38L71 39L70 38M73 38L74 39L73 38M25 39L26 40L25 39M28 39L29 40L28 39M71.3333 39.6667L71.6667 40.3333L71.3333 39.6667M74 39L75 40L74 39z"/>
<path style="fill:#abbbd3; stroke:none;" d="M24 40L25 41L24 40M28 40L29 41L28 40z"/>
<path style="fill:#6f839f; stroke:none;" d="M75 40L76 41L75 40z"/>
<path style="fill:#abbbd3; stroke:none;" d="M14 41L15 42L14 41z"/>
<path style="fill:#6f839f; stroke:none;" d="M15 41L15 42L24 42L15 41M29 41L29 42L71 42C60.0123 37.3893 40.9573 41 29 41M84 41L85 42L84 41z"/>
<path style="fill:#abbbd3; stroke:none;" d="M85 41L86 42L85 41z"/>
<path style="fill:#6f839f; stroke:none;" d="M13 42L14 43L13 42M86 42L87 43L86 42M12 43L13 44L12 43M87 43L88 44L87 43M14.3333 44.6667L14.6667 45.3333L14.3333 44.6667z"/>
<path style="fill:#dfebff; stroke:none;" d="M15 44L15 82L85 82L85 44L15 44z"/>
<path style="fill:#6f839f; stroke:none;" d="M85 44L85 82L86 82C86 71.0894 89.2113 54.0359 85 44z"/>
<path style="fill:#abbbd3; stroke:none;" d="M14 46L14 81L15 81L14 46M27.6667 54.3333L28.3333 54.6667L27.6667 54.3333M42 54L42 55L45 55L42 54z"/>
<path style="fill:#6f839f; stroke:none;" d="M24 55L23 57L24 55z"/>
<path style="fill:#21395a; stroke:none;" d="M25.1049 55.8735C16.6317 59.3904 20.7906 73.8059 29.956 70.2531C38.671 66.8748 34.0634 52.1551 25.1049 55.8735z"/>
<path style="fill:#6f839f; stroke:none;" d="M30 55L31 56L30 55M39 55L40 56L39 55z"/>
<path style="fill:#21395a; stroke:none;" d="M39 71L41 71L41 66C42.6536 65.7708 44.3584 65.6384 45.9159 64.9676C54.7343 61.1694 44.3721 51.1649 40.0278 56.6042C37.5645 59.6883 39 67.2461 39 71z"/>
<path style="fill:#6f839f; stroke:none;" d="M46 55L47 56L46 55z"/>
<path style="fill:#abbbd3; stroke:none;" d="M47 55L48 56L47 55z"/>
<path style="fill:#21395a; stroke:none;" d="M54 55L54 71L63 71L63 69L56 69L56 64L62 64L62 63L56 62L56 57L63 57L63 55L54 55z"/>
<path style="fill:#6f839f; stroke:none;" d="M67 55L68 56L67 55z"/>
<path style="fill:#21395a; stroke:none;" d="M68 55L67 71L69 71L69 61L78 71L79 71L80 55L78 55L77 65L68 55z"/>
<path style="fill:#6f839f; stroke:none;" d="M69 55L70 56L69 55z"/>
<path style="fill:#abbbd3; stroke:none;" d="M32 56L33 57L32 56z"/>
<path style="fill:#6f839f; stroke:none;" d="M48 56L49 57L48 56M53 56L53 70L54 70L53 56z"/>
<path style="fill:#abbbd3; stroke:none;" d="M66 56L66 69L67 69L66 56M70 56L71 57L70 56z"/>
<path style="fill:#6f839f; stroke:none;" d="M77 56L77 64L78 64L77 56z"/>
<path style="fill:#abbbd3; stroke:none;" d="M80 56L80 70L81 70L80 56z"/>
<path style="fill:#6f839f; stroke:none;" d="M25 57L26 58L25 57z"/>
<path style="fill:#abbbd3; stroke:none;" d="M26.6667 57.3333L27.3333 57.6667L26.6667 57.3333z"/>
<path style="fill:#6f839f; stroke:none;" d="M28.6667 57.3333L29.3333 57.6667L28.6667 57.3333z"/>
<path style="fill:#abbbd3; stroke:none;" d="M33 57L34 58L33 57M38 57L38 70L39 70L38 57M42 57L42 58L46 58L42 57z"/>
<path style="fill:#6f839f; stroke:none;" d="M46 57L47 62L48 62L46 57M49 57L50 58L49 57M56 57L57 58L56 57z"/>
<path style="fill:#abbbd3; stroke:none;" d="M57 57L57 58L62 58L57 57z"/>
<path style="fill:#6f839f; stroke:none;" d="M21 58L22 59L21 58z"/>
<path style="fill:#dfebff; stroke:none;" d="M24.7423 59.0285C20.2824 62.6013 25.4663 71.8413 30.3966 67.2423C34.4765 63.4365 29.8672 54.9231 24.7423 59.0285z"/>
<path style="fill:#6f839f; stroke:none;" d="M41 58C41.2626 61.4098 41.6787 62.9011 45 64L45 63L42 63L41 58z"/>
<path style="fill:#dfebff; stroke:none;" d="M42 58L42 63L47 63L47 58L42 58z"/>
<path style="fill:#abbbd3; stroke:none;" d="M56 58L57 59L56 58z"/>
<path style="fill:#6f839f; stroke:none;" d="M71 58L72 59L71 58z"/>
<path style="fill:#abbbd3; stroke:none;" d="M20 59L21 60L20 59M23 59L24 60L23 59z"/>
<path style="fill:#6f839f; stroke:none;" d="M34 59L35 60L34 59z"/>
<path style="fill:#abbbd3; stroke:none;" d="M72 59L73 60L72 59z"/>
<path style="fill:#6f839f; stroke:none;" d="M20 60L21 61L20 60M32 60L32 66L33 66L32 60M22 61L22 65L23 65L22 61z"/>
<path style="fill:#abbbd3; stroke:none;" d="M35 61L36 62L35 61z"/>
<path style="fill:#6f839f; stroke:none;" d="M69 61L69 70L70 70L69 61M71 61L72 62L71 61M73 61L74 62L73 61z"/>
<path style="fill:#abbbd3; stroke:none;" d="M19 62L19 65L20 65L19 62z"/>
<path style="fill:#6f839f; stroke:none;" d="M35.3333 62.6667L35.6667 63.3333L35.3333 62.6667M49 62L50 63L49 62M61 62L62 63L61 62M72 62L73 63L72 62M74 62L75 63L74 62z"/>
<path style="fill:#abbbd3; stroke:none;" d="M35 64L36 65L35 64z"/>
<path style="fill:#6f839f; stroke:none;" d="M56 64L56 65L59 65L56 64z"/>
<path style="fill:#abbbd3; stroke:none;" d="M59.6667 64.3333L60.3333 64.6667L59.6667 64.3333z"/>
<path style="fill:#6f839f; stroke:none;" d="M73 64L74 65L73 64M76 64L77 65L76 64M44.6667 65.3333L45.3333 65.6667L44.6667 65.3333z"/>
<path style="fill:#abbbd3; stroke:none;" d="M46 65L47 66L46 65z"/>
<path style="fill:#6f839f; stroke:none;" d="M74 65L75 66L74 65M20 66L21 67L20 66M34 66L35 67L34 66M41 66L41 71L42 71L41 66z"/>
<path style="fill:#abbbd3; stroke:none;" d="M20 67L21 68L20 67z"/>
<path style="fill:#6f839f; stroke:none;" d="M31 67L32 68L31 67M75 67L76 68L75 67M21 68L22 69L21 68z"/>
<path style="fill:#abbbd3; stroke:none;" d="M25 68L26 69L25 68M29 68L30 69L29 68z"/>
<path style="fill:#6f839f; stroke:none;" d="M30 68L31 69L30 68z"/>
<path style="fill:#abbbd3; stroke:none;" d="M33 68L34 69L33 68z"/>
<path style="fill:#6f839f; stroke:none;" d="M76 68L77 69L76 68M22 69L23 70L22 69M32 69L33 70L32 69M63 69L64 70L63 69z"/>
<path style="fill:#abbbd3; stroke:none;" d="M23 70L24 71L23 70z"/>
<path style="fill:#6f839f; stroke:none;" d="M30 70L31 71L30 70z"/>
<path style="fill:#abbbd3; stroke:none;" d="M31 70L32 71L31 70M63 70L64 71L63 70M69 70L70 71L69 70M77 70L78 71L77 70z"/>
<path style="fill:#6f839f; stroke:none;" d="M79 70L80 71L79 70z"/>
<path style="fill:#abbbd3; stroke:none;" d="M25 71L26 72L25 71z"/>
<path style="fill:#6f839f; stroke:none;" d="M26 71L26 72L29 72L26 71z"/>
<path style="fill:#abbbd3; stroke:none;" d="M29 71L30 72L29 71M39.6667 71.3333L40.3333 71.6667L39.6667 71.3333M68 71L69 72L68 71M11 81L12 82L11 81z"/>
<path style="fill:#6f839f; stroke:none;" d="M14 81L15 82L14 81z"/>
<path style="fill:#abbbd3; stroke:none;" d="M88 81L89 82L88 81z"/>
<path style="fill:#6f839f; stroke:none;" d="M12 82L13 83L12 82M15 82L15 83L85 83L63 82L15 82M87 82L88 83L87 82M14 84L15 85L14 84M85 84L86 85L85 84z"/>
<path style="fill:#010101; stroke:none;" d="M99 94L95 100L100 100L99 94M0 95L0 100L6 100L6 99L0 95z"/>
</svg>
